<?xml version="1.0" encoding="iso-8859-1"?>
<!-- Generator: Adobe Illustrator 19.0.0, SVG Export Plug-In . SVG Version: 6.00 Build 0)  -->
<svg xmlns="http://www.w3.org/2000/svg" xmlns:xlink="http://www.w3.org/1999/xlink" version="1.1" id="Layer_1" x="0px" y="0px" viewBox="0 0 511.828 511.828" style="enable-background:new 0 0 511.828 511.828;" xml:space="preserve" width="512" height="512">
<g>
	<g>
		<g>
			<path style="fill:#5DDCF9;" d="M452.104,203.69c0-107.329-86.185-194.529-193.124-196.167     C150.311,5.858,59.723,95.009,59.723,203.691c0,48.34,17.493,92.588,46.481,126.783h-0.018l0.544,0.622     c0.884,1.034,1.781,2.057,2.686,3.073l145.953,167.009c3.779,4.324,10.55,4.175,14.134-0.312l136.138-170.392h-0.018     C434.611,296.278,452.104,252.031,452.104,203.69z"/>
		</g>
		<g>
			<path style="fill:#43C5FF;" d="M452.104,203.69c0-84.744-53.736-156.925-128.988-184.363     c48.472,35.721,79.926,93.198,79.926,158.03c0,48.34-17.493,92.588-46.481,126.783h0.019L226.001,467.573l29.368,33.604     c3.779,4.324,10.549,4.175,14.134-0.312l136.138-170.392h-0.018C434.611,296.278,452.104,252.031,452.104,203.69z"/>
		</g>
		<g>
			<circle style="fill:#E3FAFF;" cx="173.209" cy="202.392" r="50.978"/>
		</g>
		<g>
			<path style="fill:#CCF4FF;" d="M172.52,151.414c-4.903,0-9.638,0.706-14.125,1.998c21.28,6.127,36.853,25.728,36.853,48.98     c0,23.252-15.573,42.853-36.853,48.98c4.487,1.292,9.222,1.998,14.125,1.998c28.154,0,50.978-22.823,50.978-50.978     C223.498,174.238,200.675,151.414,172.52,151.414z"/>
		</g>
		<g>
			<circle style="fill:#E3FAFF;" cx="345.209" cy="202.392" r="50.978"/>
		</g>
		<g>
			<path style="fill:#CCF4FF;" d="M344.52,151.414c-4.903,0-9.638,0.706-14.125,1.998c21.28,6.127,36.853,25.728,36.853,48.98     c0,23.252-15.573,42.853-36.853,48.98c4.487,1.292,9.222,1.998,14.125,1.998c28.154,0,50.978-22.823,50.978-50.978     C395.498,174.238,372.675,151.414,344.52,151.414z"/>
		</g>
		<g>
			<g>
				<path style="fill:#273A9B;" d="M173.209,260.87c-32.244,0-58.478-26.233-58.478-58.478c0-32.245,26.233-58.478,58.478-58.478      s58.478,26.233,58.478,58.478C231.687,234.637,205.453,260.87,173.209,260.87z M173.209,158.914      c-23.974,0-43.478,19.504-43.478,43.478s19.504,43.478,43.478,43.478s43.478-19.504,43.478-43.478      S197.183,158.914,173.209,158.914z"/>
			</g>
		</g>
		<g>
			<g>
				<path style="fill:#273A9B;" d="M345.209,260.87c-32.244,0-58.478-26.233-58.478-58.478c0-32.245,26.233-58.478,58.478-58.478      s58.478,26.233,58.478,58.478C403.687,234.637,377.453,260.87,345.209,260.87z M345.209,158.914      c-23.974,0-43.478,19.504-43.478,43.478s19.504,43.478,43.478,43.478s43.478-19.504,43.478-43.478      S369.183,158.914,345.209,158.914z"/>
			</g>
		</g>
		<g>
			<circle style="fill:#406AEF;" cx="241.354" cy="202.392" r="17.167"/>
		</g>
	</g>
	<g>
		<path d="M424.519,89.366c-2.328-3.426-6.991-4.317-10.419-1.989c-3.426,2.327-4.316,6.992-1.989,10.418    c21.258,31.292,32.494,67.91,32.494,105.896c0,44.624-15.876,87.927-44.702,121.934c-0.148,0.175-0.288,0.355-0.418,0.541    L263.644,496.184c-0.413,0.518-0.936,0.636-1.301,0.644c-0.385,0.014-0.893-0.088-1.327-0.585l-58.759-67.237    c-2.727-3.119-7.465-3.438-10.583-0.712c-3.119,2.726-3.438,7.464-0.712,10.583l58.759,67.236    c3.187,3.645,7.753,5.715,12.58,5.715c0.124,0,0.249-0.001,0.373-0.004c4.964-0.109,9.589-2.397,12.688-6.276l136.139-170.392    c0.053-0.066,0.104-0.133,0.154-0.2c30.923-36.657,47.949-83.255,47.949-131.265C459.605,162.687,447.472,123.154,424.519,89.366z    "/>
		<path d="M188.359,413.103l-73.344-83.924c-0.87-0.977-1.732-1.961-2.639-3.02l-0.242-0.277c-0.067-0.087-0.137-0.173-0.209-0.257    c-28.826-34.006-44.702-77.31-44.702-121.934c0-50.519,20.104-98.14,56.61-134.09c36.524-35.97,84.484-55.339,135.031-54.578    c51.826,0.794,99.842,22.154,135.202,60.145c2.822,3.032,7.568,3.202,10.6,0.38c3.032-2.822,3.202-7.567,0.381-10.6    c-18.518-19.895-40.407-35.654-65.06-46.839C314.493,6.54,287.277,0.456,259.095,0.024C258.041,0.008,256.993,0,255.943,0    c-53.438,0-103.984,20.85-142.635,58.913C73.916,97.705,52.223,149.122,52.223,203.69c0,48.016,17.026,94.615,47.957,131.274    c0.113,0.152,0.234,0.301,0.361,0.446l0.488,0.558c0.917,1.074,1.848,2.137,2.739,3.136l73.295,83.869    c1.483,1.697,3.562,2.565,5.65,2.565c1.751,0,3.511-0.61,4.933-1.853C190.766,420.96,191.084,416.222,188.359,413.103z"/>
		<path d="M286.732,202.392c0,32.245,26.233,58.478,58.478,58.478s58.478-26.233,58.478-58.478    c0-32.245-26.233-58.478-58.478-58.478c-2.947,0-5.842,0.224-8.674,0.647l-9.745-34.215l9.715-8.04    c3.19-2.641,3.637-7.369,0.996-10.56c-2.642-3.192-7.368-3.636-10.561-0.996l-10.794,8.933c-3.928,3.249-5.563,8.516-4.167,13.42    l1.116,3.917l-83.865,17.203l-4.854-14.809h12.31c4.143,0,7.5-3.358,7.5-7.5s-3.357-7.5-7.5-7.5h-40c-4.143,0-7.5,3.358-7.5,7.5    s3.357,7.5,7.5,7.5h11.905l7.153,21.825L205.236,153.5c-9.207-6.052-20.209-9.586-32.026-9.586    c-32.244,0-58.478,26.233-58.478,58.478c0,32.245,26.233,58.478,58.478,58.478c24.972,0,46.328-15.74,54.696-37.816    c3.872,2.528,8.49,4.005,13.449,4.005c2.142,0,4.221-0.275,6.203-0.791l2.458,3.946c-2.643,1.16-4.491,3.796-4.491,6.867    c0,4.142,3.357,7.5,7.5,7.5h20c4.143,0,7.5-3.358,7.5-7.5s-3.357-7.5-7.5-7.5h-5.732l-7.06-11.335    c3.609-4.291,5.789-9.821,5.789-15.853c0-1.886-0.22-3.721-0.623-5.487l53.47-59.616l3.244,11.389    C301.323,157.653,286.732,178.347,286.732,202.392z M173.209,245.87c-23.974,0-43.478-19.504-43.478-43.478    s19.504-43.478,43.478-43.478s43.478,19.504,43.478,43.478S197.183,245.87,173.209,245.87z M231.687,202.392    c0-5.331,4.337-9.667,9.667-9.667c3.483,0,6.532,1.858,8.234,4.628c0.21,0.729,0.532,1.43,0.965,2.078    c0.301,0.934,0.468,1.928,0.468,2.961c0,5.33-4.337,9.667-9.667,9.667S231.687,207.722,231.687,202.392z M257.237,183.54    c-4.295-3.624-9.837-5.814-15.883-5.814c-4.959,0-9.577,1.476-13.449,4.005c-2.601-6.862-6.451-13.113-11.281-18.467    l11.586-13.518l72.716-14.916L257.237,183.54z M345.209,158.914c23.974,0,43.478,19.504,43.478,43.478    s-19.504,43.478-43.478,43.478s-43.478-19.504-43.478-43.478c0-17.187,10.026-32.075,24.535-39.128l11.729,41.182    c0.938,3.297,3.942,5.447,7.209,5.447c0.68,0,1.372-0.093,2.059-0.289c3.983-1.134,6.293-5.284,5.158-9.268l-11.731-41.188    C342.177,158.995,343.683,158.914,345.209,158.914z"/>
		<path d="M190.198,182.569c-3.148-2.697-7.881-2.33-10.575,0.814l-12.108,14.128c-2.696,3.146-2.331,7.88,0.813,10.576    c1.415,1.212,3.15,1.805,4.877,1.805c2.114,0,4.215-0.889,5.698-2.619l12.108-14.128C193.708,190,193.343,185.265,190.198,182.569    z"/>
	</g>
</g>















</svg>
